<svg xmlns="http://www.w3.org/2000/svg" xmlns:xlink="http://www.w3.org/1999/xlink" width="500" zoomAndPan="magnify" viewBox="0 0 375 374.999991" height="500" preserveAspectRatio="xMidYMid meet" version="1.0"><defs><clipPath id="id1"><path d="M 0 101 L 133 101 L 133 292.859375 L 0 292.859375 Z M 0 101 " clip-rule="nonzero"/></clipPath><clipPath id="id2"><path d="M 126 101 L 216.75 101 L 216.75 116 L 126 116 Z M 126 101 " clip-rule="nonzero"/></clipPath><clipPath id="id3"><path d="M 85 138 L 102 138 L 102 292.859375 L 85 292.859375 Z M 85 138 " clip-rule="nonzero"/></clipPath><clipPath id="id4"><path d="M 139.675781 26.917969 L 375 26.917969 L 375 347.917969 L 139.675781 347.917969 Z M 139.675781 26.917969 " clip-rule="nonzero"/></clipPath></defs><g clip-path="url(#id1)"><path fill="#d9d9d9" d="M 110.210938 100.917969 L 132.445312 123.164062 L 132.445312 276.117188 L 115.769531 292.804688 L 115.769531 131.507812 L 99.5625 115.285156 L 20.839844 115.285156 L 0 100.917969 Z M 110.210938 100.917969 " fill-opacity="1" fill-rule="nonzero"/></g><g clip-path="url(#id2)"><path fill="#d9d9d9" d="M 216.726562 100.917969 L 195.882812 115.285156 L 147.726562 115.285156 L 126.886719 100.917969 Z M 216.726562 100.917969 " fill-opacity="1" fill-rule="nonzero"/></g><g clip-path="url(#id3)"><path fill="#d9d9d9" d="M 101.878906 292.804688 L 85.210938 276.117188 L 85.210938 138.460938 L 101.878906 138.460938 Z M 101.878906 292.804688 " fill-opacity="1" fill-rule="nonzero"/></g><g clip-path="url(#id4)"><path fill="#d9d9d9" d="M 251.449219 26.917969 L 139.886719 26.917969 L 139.886719 97.3125 L 250.472656 97.3125 C 252.222656 97.328125 253.96875 97.433594 255.710938 97.621094 C 257.453125 97.8125 259.179688 98.085938 260.898438 98.441406 C 262.613281 98.800781 264.304688 99.238281 265.976562 99.761719 C 267.648438 100.285156 269.292969 100.886719 270.90625 101.570312 C 272.519531 102.253906 274.09375 103.011719 275.632812 103.847656 C 277.171875 104.683594 278.667969 105.59375 280.117188 106.574219 C 281.566406 107.554688 282.964844 108.605469 284.3125 109.726562 C 285.660156 110.84375 286.949219 112.023438 288.183594 113.269531 C 289.414062 114.511719 290.582031 115.8125 291.6875 117.171875 C 292.792969 118.527344 293.828125 119.9375 294.796875 121.394531 C 295.765625 122.855469 296.660156 124.355469 297.480469 125.902344 C 298.300781 127.449219 299.042969 129.03125 299.710938 130.648438 C 300.375 132.265625 300.960938 133.914062 301.464844 135.589844 C 301.972656 137.265625 302.394531 138.960938 302.734375 140.679688 C 303.074219 142.394531 303.328125 144.125 303.5 145.863281 C 303.667969 147.605469 303.753906 149.351562 303.753906 151.101562 C 303.753906 152.851562 303.667969 154.597656 303.5 156.339844 C 303.328125 158.082031 303.074219 159.808594 302.734375 161.527344 C 302.394531 163.242188 301.972656 164.9375 301.464844 166.613281 C 300.960938 168.289062 300.375 169.9375 299.710938 171.554688 C 299.042969 173.171875 298.300781 174.753906 297.480469 176.300781 C 296.660156 177.847656 295.765625 179.351562 294.796875 180.808594 C 293.828125 182.265625 292.792969 183.675781 291.6875 185.035156 C 290.582031 186.390625 289.414062 187.691406 288.183594 188.9375 C 286.949219 190.179688 285.660156 191.359375 284.3125 192.480469 C 282.964844 193.597656 281.566406 194.648438 280.117188 195.628906 C 278.667969 196.609375 277.171875 197.519531 275.632812 198.355469 C 274.09375 199.191406 272.519531 199.953125 270.90625 200.632812 C 269.292969 201.316406 267.648438 201.917969 265.976562 202.441406 C 264.304688 202.964844 262.613281 203.402344 260.898438 203.761719 C 259.179688 204.117188 257.453125 204.390625 255.710938 204.582031 C 253.96875 204.769531 252.222656 204.875 250.472656 204.894531 L 206.828125 204.894531 L 206.828125 184.785156 L 249.234375 184.785156 C 250.34375 184.785156 251.449219 184.730469 252.554688 184.621094 C 253.65625 184.511719 254.753906 184.351562 255.839844 184.132812 C 256.925781 183.917969 258 183.648438 259.0625 183.328125 C 260.121094 183.007812 261.164062 182.632812 262.1875 182.210938 C 263.214844 181.785156 264.214844 181.3125 265.191406 180.792969 C 266.167969 180.269531 267.121094 179.699219 268.042969 179.085938 C 268.964844 178.46875 269.851562 177.8125 270.710938 177.109375 C 271.566406 176.40625 272.386719 175.664062 273.171875 174.882812 C 273.953125 174.097656 274.699219 173.277344 275.402344 172.421875 C 276.105469 171.566406 276.765625 170.679688 277.378906 169.757812 C 277.996094 168.835938 278.566406 167.890625 279.089844 166.914062 C 279.609375 165.9375 280.085938 164.9375 280.507812 163.914062 C 280.933594 162.890625 281.304688 161.847656 281.628906 160.789062 C 281.949219 159.730469 282.21875 158.65625 282.433594 157.570312 C 282.652344 156.484375 282.8125 155.390625 282.921875 154.289062 C 283.03125 153.1875 283.085938 152.082031 283.085938 150.976562 C 283.085938 149.867188 283.03125 148.761719 282.921875 147.660156 C 282.8125 146.558594 282.652344 145.464844 282.433594 144.378906 C 282.21875 143.292969 281.949219 142.222656 281.628906 141.160156 C 281.304688 140.101562 280.933594 139.0625 280.507812 138.039062 C 280.085938 137.015625 279.609375 136.015625 279.089844 135.039062 C 278.566406 134.0625 277.996094 133.113281 277.378906 132.191406 C 276.765625 131.273438 276.105469 130.382812 275.402344 129.527344 C 274.699219 128.671875 273.953125 127.851562 273.171875 127.070312 C 272.386719 126.285156 271.566406 125.542969 270.710938 124.839844 C 269.851562 124.140625 268.964844 123.480469 268.042969 122.863281 C 267.121094 122.25 266.167969 121.679688 265.191406 121.160156 C 264.214844 120.636719 263.214844 120.164062 262.1875 119.742188 C 261.164062 119.316406 260.121094 118.945312 259.0625 118.625 C 258 118.300781 256.925781 118.03125 255.839844 117.816406 C 254.753906 117.601562 253.65625 117.4375 252.554688 117.332031 C 251.449219 117.222656 250.34375 117.167969 249.234375 117.167969 L 139.886719 117.167969 L 139.886719 220.214844 L 191.484375 220.214844 L 191.484375 258.3125 L 139.886719 258.3125 L 139.886719 347.917969 L 206.828125 347.917969 L 206.828125 273.644531 L 251.449219 273.644531 C 319.554688 273.644531 374.964844 218.308594 374.964844 150.285156 C 374.964844 82.261719 319.554688 26.917969 251.449219 26.917969 Z M 191.484375 332.589844 L 155.230469 332.589844 L 155.230469 273.644531 L 191.484375 273.644531 Z M 191.484375 169.460938 L 191.484375 204.894531 L 155.230469 204.894531 L 155.230469 132.496094 L 249.234375 132.496094 C 249.863281 132.457031 250.492188 132.453125 251.121094 132.480469 C 251.75 132.507812 252.375 132.570312 253 132.660156 C 253.621094 132.75 254.238281 132.875 254.847656 133.027344 C 255.457031 133.183594 256.058594 133.367188 256.648438 133.582031 C 257.242188 133.796875 257.820312 134.042969 258.386719 134.316406 C 258.953125 134.589844 259.503906 134.890625 260.039062 135.222656 C 260.574219 135.554688 261.09375 135.910156 261.589844 136.292969 C 262.089844 136.675781 262.570312 137.082031 263.027344 137.511719 C 263.484375 137.945312 263.917969 138.398438 264.332031 138.875 C 264.742188 139.351562 265.128906 139.84375 265.488281 140.359375 C 265.851562 140.875 266.183594 141.40625 266.492188 141.957031 C 266.796875 142.503906 267.074219 143.066406 267.324219 143.644531 C 267.574219 144.222656 267.792969 144.8125 267.980469 145.410156 C 268.171875 146.011719 268.328125 146.617188 268.457031 147.234375 C 268.582031 147.847656 268.679688 148.46875 268.742188 149.09375 C 268.808594 149.71875 268.839844 150.347656 268.839844 150.976562 C 268.839844 151.605469 268.808594 152.230469 268.742188 152.855469 C 268.679688 153.480469 268.582031 154.101562 268.457031 154.71875 C 268.328125 155.332031 268.171875 155.941406 267.980469 156.539062 C 267.792969 157.140625 267.574219 157.726562 267.324219 158.304688 C 267.074219 158.882812 266.796875 159.445312 266.492188 159.996094 C 266.183594 160.542969 265.851562 161.074219 265.488281 161.589844 C 265.128906 162.105469 264.742188 162.601562 264.332031 163.078125 C 263.917969 163.550781 263.484375 164.003906 263.027344 164.4375 C 262.570312 164.867188 262.089844 165.277344 261.589844 165.660156 C 261.09375 166.042969 260.574219 166.398438 260.039062 166.726562 C 259.503906 167.058594 258.953125 167.359375 258.386719 167.632812 C 257.820312 167.910156 257.242188 168.152344 256.648438 168.367188 C 256.058594 168.582031 255.457031 168.769531 254.847656 168.921875 C 254.238281 169.078125 253.621094 169.199219 253 169.289062 C 252.375 169.382812 251.75 169.441406 251.121094 169.46875 C 250.492188 169.496094 249.863281 169.492188 249.234375 169.457031 Z M 251.449219 258.316406 L 206.828125 258.316406 L 206.828125 220.214844 L 250.472656 220.214844 C 251.605469 220.214844 252.734375 220.1875 253.867188 220.132812 C 254.996094 220.074219 256.125 219.992188 257.253906 219.882812 C 258.378906 219.769531 259.503906 219.632812 260.625 219.464844 C 261.746094 219.300781 262.859375 219.105469 263.96875 218.886719 C 265.082031 218.664062 266.183594 218.417969 267.285156 218.144531 C 268.382812 217.867188 269.472656 217.566406 270.558594 217.238281 C 271.640625 216.910156 272.714844 216.554688 273.78125 216.175781 C 274.847656 215.792969 275.902344 215.386719 276.949219 214.953125 C 277.996094 214.519531 279.03125 214.0625 280.054688 213.578125 C 281.078125 213.09375 282.089844 212.585938 283.089844 212.054688 C 284.085938 211.519531 285.074219 210.964844 286.042969 210.382812 C 287.015625 209.800781 287.972656 209.195312 288.914062 208.566406 C 289.855469 207.9375 290.78125 207.289062 291.691406 206.613281 C 292.597656 205.941406 293.492188 205.246094 294.367188 204.527344 C 295.242188 203.808594 296.101562 203.070312 296.9375 202.3125 C 297.777344 201.550781 298.597656 200.773438 299.398438 199.972656 C 300.199219 199.171875 300.980469 198.355469 301.742188 197.515625 C 302.5 196.679688 303.242188 195.820312 303.957031 194.949219 C 304.675781 194.074219 305.375 193.183594 306.046875 192.273438 C 306.722656 191.363281 307.375 190.441406 308.003906 189.5 C 308.632812 188.558594 309.238281 187.605469 309.820312 186.632812 C 310.402344 185.664062 310.960938 184.679688 311.496094 183.683594 C 312.027344 182.683594 312.539062 181.675781 313.023438 180.652344 C 313.503906 179.628906 313.964844 178.597656 314.398438 177.550781 C 314.832031 176.507812 315.238281 175.453125 315.621094 174.386719 C 316 173.320312 316.355469 172.25 316.683594 171.167969 C 317.015625 170.082031 317.316406 168.996094 317.589844 167.898438 C 317.867188 166.800781 318.113281 165.695312 318.335938 164.585938 C 318.554688 163.476562 318.75 162.363281 318.914062 161.246094 C 319.082031 160.125 319.222656 159.003906 319.332031 157.878906 C 319.441406 156.753906 319.527344 155.625 319.582031 154.496094 C 319.636719 153.367188 319.664062 152.234375 319.664062 151.105469 C 319.664062 149.972656 319.636719 148.84375 319.582031 147.714844 C 319.527344 146.585938 319.441406 145.457031 319.332031 144.332031 C 319.222656 143.207031 319.082031 142.082031 318.914062 140.964844 C 318.75 139.847656 318.554688 138.730469 318.335938 137.621094 C 318.113281 136.511719 317.867188 135.410156 317.589844 134.3125 C 317.316406 133.214844 317.015625 132.125 316.683594 131.042969 C 316.355469 129.960938 316 128.886719 315.621094 127.824219 C 315.238281 126.757812 314.832031 125.703125 314.398438 124.65625 C 313.964844 123.613281 313.503906 122.578125 313.023438 121.558594 C 312.539062 120.535156 312.027344 119.523438 311.496094 118.527344 C 310.960938 117.53125 310.402344 116.546875 309.820312 115.574219 C 309.238281 114.605469 308.632812 113.648438 308.003906 112.710938 C 307.375 111.769531 306.722656 110.84375 306.046875 109.9375 C 305.375 109.027344 304.675781 108.136719 303.957031 107.261719 C 303.242188 106.386719 302.5 105.53125 301.742188 104.695312 C 300.980469 103.855469 300.199219 103.039062 299.398438 102.238281 C 298.597656 101.4375 297.777344 100.65625 296.9375 99.898438 C 296.101562 99.140625 295.242188 98.398438 294.367188 97.683594 C 293.492188 96.964844 292.597656 96.269531 291.691406 95.597656 C 290.78125 94.921875 289.855469 94.269531 288.914062 93.644531 C 287.972656 93.015625 287.015625 92.410156 286.042969 91.828125 C 285.074219 91.246094 284.085938 90.6875 283.089844 90.15625 C 282.089844 89.621094 281.078125 89.113281 280.054688 88.632812 C 279.03125 88.148438 277.996094 87.6875 276.949219 87.257812 C 275.902344 86.824219 274.847656 86.417969 273.78125 86.035156 C 272.714844 85.65625 271.640625 85.300781 270.558594 84.972656 C 269.472656 84.644531 268.382812 84.339844 267.285156 84.066406 C 266.183594 83.792969 265.082031 83.542969 263.96875 83.324219 C 262.859375 83.101562 261.746094 82.910156 260.625 82.742188 C 259.503906 82.578125 258.378906 82.4375 257.253906 82.328125 C 256.125 82.21875 254.996094 82.132812 253.867188 82.078125 C 252.734375 82.023438 251.605469 81.996094 250.472656 81.996094 L 155.230469 81.996094 L 155.230469 42.238281 L 251.449219 42.238281 C 311.097656 42.238281 359.617188 90.707031 359.617188 150.285156 C 359.617188 209.859375 311.097656 258.3125 251.449219 258.3125 Z M 251.449219 258.316406 " fill-opacity="1" fill-rule="nonzero"/></g></svg>